# xmcd CD database file
#
# Track frame offsets:
#	150
#	14199
#	33904
#	48564
#	62944
#	80128
#	96264
#	109408
#	124670
#	139791
#	155940
#	174424
#	189302
#	204192
#	216507
#
# Disc length: 3074 seconds
#
# Revision: 0
# Processed by: cddbd v1.5.2PL0 Copyright (c) Steve Scherf et al.
# Submitted via: CDex 1.60beta1-cs1
#
DISCID=e40c000f
DTITLE=Billie Holiday - My Favorite Songs  (boogiejazz selection)
DYEAR=2001
DGENRE=Jazz
TTITLE0=All of me
TTITLE1=What's new
TTITLE2=Solitude
TTITLE3=The man I love
TTITLE4=Our love is here to stay
TTITLE5=Good morning heartache
TTITLE6=Yesterdays
TTITLE7=Lover man
TTITLE8=Georgia on my mind
TTITLE9=Blue moon
TTITLE10=Comes love
TTITLE11=I cried for you
TTITLE12=Easy to love
TTITLE13=Lady sings the Blues
TTITLE14=My man
EXTD=YEAR: 2001
EXTT0=
EXTT1=
EXTT2=
EXTT3=
EXTT4=
EXTT5=
EXTT6=
EXTT7=
EXTT8=
EXTT9=
EXTT10=
EXTT11=
EXTT12=
EXTT13=
EXTT14=
PLAYORDER=
